<?xml version="1.0" standalone="no"?>
<!DOCTYPE svg PUBLIC "-//W3C//DTD SVG 20010904//EN"
 "http://www.w3.org/TR/2001/REC-SVG-20010904/DTD/svg10.dtd">
<svg version="1.0" xmlns="http://www.w3.org/2000/svg"
 width="1342.000000pt" height="1342.000000pt" viewBox="0 0 1342.000000 1342.000000"
 preserveAspectRatio="xMidYMid meet">
<metadata>
Created by potrace 1.14, written by Peter Selinger 2001-2017
</metadata>
<g transform="translate(0.000000,1342.000000) scale(0.100000,-0.100000)"
fill="#000000" stroke="none">
<path d="M6499 10866 c-2 -2 -35 -7 -74 -11 -38 -3 -121 -15 -183 -26 -1018
-172 -1877 -922 -2200 -1920 -38 -117 -84 -304 -97 -394 -3 -23 -7 -50 -9 -60
-6 -30 -15 -113 -22 -185 -4 -48 -9 -5476 -5 -5687 l1 -32 2815 0 2815 0 1 32
c0 18 1 1274 1 2792 1 2413 -2 2928 -17 3005 -2 9 -6 41 -10 71 -4 30 -16 99
-27 154 -219 1108 -1106 1991 -2223 2214 -55 11 -126 23 -158 26 -32 4 -68 9
-80 12 -25 6 -522 15 -528 9z m376 -270 c126 -7 135 -8 280 -32 168 -28 367
-86 535 -156 52 -21 96 -40 98 -42 2 -2 -30 -29 -71 -60 -492 -370 -855 -901
-1022 -1495 -27 -96 -61 -253 -70 -321 -3 -25 -8 -52 -10 -60 -13 -49 -20
-192 -19 -380 0 -255 8 -335 50 -545 13 -66 33 -151 44 -190 12 -38 23 -77 25
-86 19 -86 125 -344 197 -478 140 -263 286 -463 488 -672 83 -85 247 -228 328
-287 35 -24 60 -48 55 -52 -14 -13 -204 -87 -303 -118 -104 -33 -239 -67 -310
-77 -25 -4 -67 -11 -95 -16 -206 -39 -545 -29 -864 27 -70 12 -280 74 -371
109 -52 20 -105 39 -117 42 -13 3 -23 9 -23 14 0 5 -5 9 -11 9 -5 0 -45 17
-87 37 -368 178 -710 470 -958 818 -97 136 -221 358 -265 475 -11 30 -27 69
-34 85 -39 85 -104 323 -130 475 -9 52 -18 106 -20 120 -23 130 -22 453 0 625
8 61 36 218 40 225 2 3 6 21 9 40 3 19 17 75 31 124 236 814 875 1470 1682
1728 51 16 101 31 110 33 10 3 38 9 63 16 155 38 257 53 435 65 61 3 111 8
112 9 2 1 20 0 40 -1 21 -1 92 -5 158 -8z m1273 -433 c458 -318 790 -742 971
-1239 64 -178 122 -418 136 -568 4 -34 8 -76 10 -92 6 -40 7 -393 1 -424 -2
-14 -7 -52 -11 -85 -51 -462 -262 -954 -563 -1315 -174 -209 -394 -405 -582
-521 l-50 -31 -32 23 c-46 31 -212 152 -218 159 -3 3 -23 20 -45 39 -347 293
-616 687 -766 1120 -97 281 -134 512 -134 831 0 206 6 274 40 470 20 112 79
316 131 449 99 252 264 528 438 731 157 183 526 496 589 499 10 1 48 -20 85
-46z m-3910 -3427 c262 -499 685 -918 1192 -1183 275 -144 628 -257 900 -289
30 -3 59 -8 64 -11 4 -3 -177 -191 -403 -417 -225 -226 -725 -728 -1111 -1116
-385 -387 -701 -702 -701 -700 -2 8 -4 3830 -2 3830 1 0 28 -51 61 -114z
m5037 -1806 c0 -1056 -1 -1920 -2 -1920 0 0 -54 54 -120 119 -65 65 -567 569
-1116 1120 -850 852 -994 1001 -975 1005 13 2 88 16 168 30 301 52 649 178
879 317 34 22 65 39 68 39 7 0 149 96 231 157 332 245 639 608 822 973 22 44
41 80 43 80 1 0 2 -864 2 -1920z m-2374 76 c1134 -1135 2170 -2178 2167 -2182
-3 -2 -1060 -3 -2350 -2 l-2346 3 1171 1178 c644 647 1174 1177 1178 1177 3 0
84 -78 180 -174z"/>
</g>
</svg>
